<?xml version="1.0" encoding="UTF-8"?>
<svg width="97px" height="20px" viewBox="0 0 97 20" version="1.1" xmlns="http://www.w3.org/2000/svg" xmlns:xlink="http://www.w3.org/1999/xlink">
    <!-- Generator: Sketch 53.2 (72643) - https://sketchapp.com -->
    <title>PixlResume-Logo</title>
    <desc>Created with Sketch.</desc>
    <g id="Page-1" stroke="none" stroke-width="1" fill="none" fill-rule="evenodd">
        <g id="PixlResume-Logo" fill-rule="nonzero">
            <g id="Resume" transform="translate(45.245000, 8.860000)" fill="#000000">
                <path d="M8.565,10.68 L6.93,10.68 L5.595,7.125 C5.4549993,6.7449981 5.25000135,6.48250073 4.98,6.3375 C4.70999865,6.19249927 4.34000235,6.12 3.87,6.12 L1.53,6.12 L1.53,10.68 L3.55271368e-15,10.68 L3.55271368e-15,0 L4.395,0 C5.56500585,0 6.46249688,0.2599974 7.0875,0.78 C7.71250313,1.3000026 8.025,2.04499515 8.025,3.015 C8.025,3.7150035 7.84000185,4.30999755 7.47,4.8 C7.09999815,5.29000245 6.5750034,5.634999 5.895,5.835 C6.5150031,5.94500055 6.9649986,6.38499615 7.245,7.155 L8.565,10.68 Z M4.215,4.875 C4.9950039,4.875 5.5749981,4.72250153 5.955,4.4175 C6.3350019,4.11249848 6.525,3.65500305 6.525,3.045 C6.525,2.43499695 6.33750188,1.98250148 5.9625,1.6875 C5.58749813,1.39249853 5.00500395,1.245 4.215,1.245 L1.53,1.245 L1.53,4.875 L4.215,4.875 Z M16.1125173,6.93 L10.7125173,6.93 C10.7625175,8.70000885 11.5675095,9.585 13.1275173,9.585 C13.9975216,9.585 14.7925137,9.30000285 15.5125173,8.73 L15.9775173,9.81 C15.6375156,10.1100015 15.2050199,10.3474991 14.6800173,10.5225 C14.1550146,10.6975009 13.6275199,10.785 13.0975173,10.785 C11.8875112,10.785 10.9375207,10.4375035 10.2475173,9.7425 C9.55751381,9.04749652 9.21251726,8.09500605 9.21251726,6.885 C9.21251726,6.11499615 9.36501573,5.430003 9.67001726,4.83 C9.97501878,4.229997 10.4025145,3.76500165 10.9525173,3.435 C11.50252,3.10499835 12.1275138,2.94 12.8275173,2.94 C13.8475224,2.94 14.6500143,3.2699967 15.2350173,3.93 C15.8200202,4.5900033 16.1125173,5.50499415 16.1125173,6.675 L16.1125173,6.93 Z M12.8575173,4.065 C12.2875144,4.065 11.8225191,4.2349983 11.4625173,4.575 C11.1025155,4.9150017 10.8725178,5.39999685 10.7725173,6.03 L14.7775173,6.03 C14.717517,5.3899968 14.5225189,4.90250167 14.1925173,4.5675 C13.8625156,4.23249833 13.4175201,4.065 12.8575173,4.065 Z M19.8350345,10.785 C18.5150279,10.785 17.4750383,10.4650032 16.7150345,9.825 L17.1650345,8.73 C17.9550385,9.330003 18.8600294,9.63 19.8800345,9.63 C20.4000371,9.63 20.7950332,9.54250088 21.0650345,9.3675 C21.3350359,9.19249913 21.4700345,8.9450016 21.4700345,8.625 C21.4700345,8.35499865 21.3775354,8.14250078 21.1925345,7.9875 C21.0075336,7.83249922 20.6950367,7.70000055 20.2550345,7.59 L18.9950345,7.29 C18.3350312,7.1499993 17.8325362,6.90250178 17.4875345,6.5475 C17.1425328,6.19249823 16.9700345,5.75000265 16.9700345,5.22 C16.9700345,4.5399966 17.2425318,3.9900021 17.7875345,3.57 C18.3325372,3.1499979 19.05503,2.94 19.9550345,2.94 C20.4950372,2.94 21.0075321,3.02499915 21.4925345,3.195 C21.9775369,3.36500085 22.3900328,3.60499845 22.7300345,3.915 L22.2650345,4.98 C21.5350309,4.3999971 20.7650386,4.11 19.9550345,4.11 C19.4650321,4.11 19.0850359,4.20249907 18.8150345,4.3875 C18.5450332,4.57250092 18.4100345,4.82999835 18.4100345,5.16 C18.4100345,5.4200013 18.4950337,5.6299992 18.6650345,5.79 C18.8350354,5.9500008 19.1050327,6.07499955 19.4750345,6.165 L20.7650345,6.48 C21.4850381,6.6400008 22.0175328,6.89249828 22.3625345,7.2375 C22.7075362,7.58250173 22.8800345,8.02999725 22.8800345,8.58 C22.8800345,9.2600034 22.6075372,9.79749802 22.0625345,10.1925 C21.5175318,10.587502 20.7750392,10.785 19.8350345,10.785 Z M30.5775518,3.12 L30.5775518,10.68 L29.1075518,10.68 L29.1075518,9.42 C28.8675506,9.8600022 28.5375539,10.1974988 28.1175518,10.4325 C27.6975497,10.6675012 27.2225544,10.785 26.6925518,10.785 C24.8725427,10.785 23.9625518,9.7750101 23.9625518,7.755 L23.9625518,3.12 L25.4625518,3.12 L25.4625518,7.74 C25.4625518,8.3600031 25.5900505,8.81749853 25.8450518,9.1125 C26.100053,9.40750148 26.4875492,9.555 27.0075518,9.555 C27.6275549,9.555 28.1250499,9.355002 28.5000518,8.955 C28.8750536,8.554998 29.0625518,8.0250033 29.0625518,7.365 L29.0625518,3.12 L30.5775518,3.12 Z M40.765069,2.94 C42.4450774,2.94 43.285069,3.9499899 43.285069,5.97 L43.285069,10.68 L41.770069,10.68 L41.770069,6.045 C41.770069,5.39499675 41.6575702,4.9200015 41.432569,4.62 C41.2075679,4.3199985 40.8450715,4.17 40.345069,4.17 C39.7650661,4.17 39.3075707,4.369998 38.972569,4.77 C38.6375674,5.170002 38.470069,5.71499655 38.470069,6.405 L38.470069,10.68 L36.955069,10.68 L36.955069,6.045 C36.955069,5.39499675 36.8425702,4.9200015 36.617569,4.62 C36.3925679,4.3199985 36.0300715,4.17 35.530069,4.17 C34.9500661,4.17 34.4900707,4.369998 34.150069,4.77 C33.8100673,5.170002 33.640069,5.71499655 33.640069,6.405 L33.640069,10.68 L32.140069,10.68 L32.140069,5.25 C32.140069,4.45999605 32.1000694,3.75000315 32.020069,3.12 L33.430069,3.12 L33.565069,4.38 C33.7850701,3.9199977 34.100067,3.56500125 34.510069,3.315 C34.9200711,3.06499875 35.4000663,2.94 35.950069,2.94 C37.1200749,2.94 37.8850672,3.42499515 38.245069,4.395 C38.4750702,3.94499775 38.8125668,3.5900013 39.257569,3.33 C39.7025713,3.0699987 40.2050662,2.94 40.765069,2.94 Z M51.2525863,6.93 L45.8525863,6.93 C45.9025865,8.70000885 46.7075785,9.585 48.2675863,9.585 C49.1375906,9.585 49.9325827,9.30000285 50.6525863,8.73 L51.1175863,9.81 C50.7775846,10.1100015 50.3450889,10.3474991 49.8200863,10.5225 C49.2950837,10.6975009 48.7675889,10.785 48.2375863,10.785 C47.0275802,10.785 46.0775897,10.4375035 45.3875863,9.7425 C44.6975828,9.04749652 44.3525863,8.09500605 44.3525863,6.885 C44.3525863,6.11499615 44.5050848,5.430003 44.8100863,4.83 C45.1150878,4.229997 45.5425835,3.76500165 46.0925863,3.435 C46.642589,3.10499835 47.2675828,2.94 47.9675863,2.94 C48.9875914,2.94 49.7900834,3.2699967 50.3750863,3.93 C50.9600892,4.5900033 51.2525863,5.50499415 51.2525863,6.675 L51.2525863,6.93 Z M47.9975863,4.065 C47.4275834,4.065 46.9625881,4.2349983 46.6025863,4.575 C46.2425845,4.9150017 46.0125868,5.39999685 45.9125863,6.03 L49.9175863,6.03 C49.857586,5.3899968 49.6625879,4.90250167 49.3325863,4.5675 C49.0025846,4.23249833 48.5575891,4.065 47.9975863,4.065 Z"></path>
            </g>
            <g id="pixl" transform="translate(18.910000, 8.870000)" fill="#000000">
                <path d="M7.08,6.1 C6.31268339,6.66478957 5.37081218,6.94097737 4.42,6.88 L2.2,6.88 L2.2,10.7 L0,10.7 L0,0.07 L4.56,0.07 C5.46929806,0.0234145935 6.363583,0.315571429 7.07,0.89 C7.74265663,1.55656363 8.08666832,2.48612713 8.01,3.43 C8.11626851,4.4144523 7.77487014,5.394596 7.08,6.1 L7.08,6.1 Z M5.39,2.27 C5.05040319,2.01752083 4.63233928,1.89351882 4.21,1.92 L2.21,1.92 L2.21,5.05 L4.21,5.05 C4.6377058,5.06548329 5.05551435,4.91907175 5.38,4.64 C5.68675531,4.31538534 5.83966502,3.87485974 5.8,3.43 C5.83687874,3.00045203 5.68333125,2.57636849 5.38,2.27 L5.39,2.27 Z" id="Shape"></path>
                <path d="M11.78,1.9 L9.65,1.9 L9.65,0 L11.78,0 L11.78,1.9 Z M9.7,2.84 L11.78,2.84 L11.78,10.69 L9.65,10.69 L9.65,2.84 L9.7,2.84 Z" id="Shape"></path>
                <polygon id="Path" points="12.94 10.69 15.62 6.69 13.05 2.83 15.57 2.83 16.88 5.11 18.16 2.83 20.6 2.83 18.03 6.64 20.7008535 10.69 18.16 10.69 16.78 8.33 15.42 10.69"></polygon>
                <polygon id="Path" points="24.03 10.69 21.97 10.69 21.97 0.07 24.02 0.07 24.02 10.69"></polygon>
            </g>
            <g id="icon" transform="translate(0.990000, 0.099999)" fill="#005FFF">
                <path d="M5.11,14.2300009 L3.18,14.2300009 C1.71623081,14.1734526 0.480230947,15.3068243 0.41,16.7700009 L0.41,16.8700009 C0.480230947,18.3331774 1.71623081,19.4665491 3.18,19.4100009 L3.35,19.4100009 C4.32202116,19.4100009 5.11,18.622022 5.11,17.6500009 L5.11,14.2100009 L5.11,14.2300009 Z" id="Path"></path>
                <polygon id="Path" points="8.64 7.62000088 8.64 7.62000088 8.64 7.63000088"></polygon>
                <path d="M14.44,5.27000088 L14.44,5.27000088 L13.01,5.27000088 C12.7469687,5.23860803 12.5565089,5.00385525 12.58,4.74000088 C12.5798767,4.60545232 12.6257453,4.47490313 12.71,4.37000088 C12.7854176,4.27580045 12.8993308,4.22068116 13.02,4.22000088 L14.45,4.22000088 L14.45,4.22000088 C14.8229314,4.17642736 15.1041222,3.86046927 15.1041222,3.48500088 C15.1041222,3.10953249 14.8229314,2.7935744 14.45,2.75000088 L11.18,2.75000088 C10.9169687,2.71860803 10.7265089,2.48385525 10.75,2.22000088 C10.7490574,2.08531424 10.7950197,1.95449839 10.88,1.85000088 C10.9554176,1.75580045 11.0693308,1.70068116 11.19,1.70000088 L13.19,1.70000088 C13.3918544,1.70118661 13.5746226,1.58088047 13.6533459,1.39500619 C13.7320691,1.20913191 13.691304,0.994152807 13.55,0.850000878 C12.9990168,0.304888653 12.2550674,-0.000597793354 11.48,8.78268154e-07 L4.37,8.78268154e-07 C1.95651564,8.78268154e-07 0,1.95651652 0,4.37000088 L0,15.2800009 C0.226062874,14.948295 0.476770979,14.6340742 0.75,14.3400009 C1.11979108,13.8507393 1.65775293,13.5158491 2.26,13.4000009 C3.16,13.4000009 6.37,13.3000009 6.37,13.3000009 C9.56375337,13.257769 12.4344959,11.3426351 13.7,8.41000088 C13.7650705,8.27030173 13.7541266,8.10701988 13.6709952,7.97725392 C13.5878639,7.84748796 13.4441088,7.76928831 13.29,7.77000088 L12.12,7.77000088 C11.8569687,7.73860803 11.6665089,7.50385525 11.69,7.24000088 C11.6898767,7.10545232 11.7357453,6.97490313 11.82,6.87000088 C11.8954176,6.77580045 12.0093308,6.72068116 12.13,6.72000088 L14.35,6.72000088 C14.6090176,6.73607783 14.8569366,6.61274933 15.0003684,6.39647202 C15.1438002,6.18019472 15.1609541,5.90382628 15.0453684,5.67147202 C14.9297827,5.43911777 14.6990176,5.28607783 14.44,5.27000088 L14.44,5.27000088 Z M9.09,1.75000088 C9.25888522,1.57686759 9.52355718,1.54002936 9.73330238,1.66046318 C9.94304758,1.780897 10.0446547,2.02804939 9.98026501,2.26118309 C9.91587535,2.4943168 9.70182428,2.65428693 9.46,2.65000088 L9.46,2.65000088 C9.24857245,2.64625357 9.05960437,2.51718563 8.97920004,2.32160753 C8.89879571,2.12602943 8.94234325,1.90137173 9.09,1.75000088 L9.09,1.75000088 Z M7.72,4.75000088 L7.72,4.75000088 L7.72,4.75000088 L7.72,4.75000088 L7.72,4.75000088 L7.72,4.75000088 L7.72,4.75000088 L7.72,4.75000088 L7.72,4.75000088 L7.66,4.82000088 L7.66,4.82000088 L7.66,4.82000088 L7.66,4.82000088 L7.66,4.82000088 L7.66,4.82000088 L7.66,4.82000088 L7.2,4.82000088 C6.96811689,4.75143421 6.81204271,4.53461227 6.82061933,4.2929563 C6.82919594,4.05130034 7.00024854,3.84608847 7.2364091,3.79413314 C7.47256966,3.74217782 7.71395355,3.85665366 7.82315818,4.07239776 C7.93236281,4.28814185 7.88169652,4.55044669 7.7,4.71000088 C7.7,4.71000088 7.7,4.73000088 7.7,4.75000088 L7.72,4.75000088 Z M8.82,7.22000088 C8.82,7.22000088 8.82,7.22000088 8.82,7.22000088 L8.82,7.22000088 L8.82,7.22000088 L8.82,7.22000088 L8.82,7.41000088 L8.82,7.41000088 L8.82,7.41000088 L8.82,7.41000088 L8.82,7.41000088 L8.82,7.41000088 L8.82,7.41000088 L8.82,7.41000088 L8.82,7.41000088 L8.82,7.41000088 L8.82,7.41000088 L8.3,7.41000088 C8.00728908,7.41000088 7.77,7.1727118 7.77,6.88000088 C7.77,6.58728996 8.00728908,6.35000088 8.3,6.35000088 C8.59271092,6.35000088 8.83,6.58728996 8.83,6.88000088 L8.83,6.88000088 L8.82,7.22000088 Z M10.82,7.22000088 L10.82,7.22000088 L10.82,7.22000088 L10.82,7.22000088 C10.8229418,7.24992876 10.8229418,7.280073 10.82,7.31000088 L10.82,7.31000088 L10.82,7.31000088 L10.82,7.31000088 L10.82,7.31000088 L10.82,7.31000088 L10.82,7.31000088 L10.82,7.31000088 L10.77,7.36000088 L10.77,7.36000088 L10.77,7.36000088 L10.77,7.36000088 L10.52,7.36000088 L10.43,7.36000088 L10.31,7.36000088 C10.0172891,7.36000088 9.78,7.1227118 9.78,6.83000088 C9.78,6.53728996 10.0172891,6.30000088 10.31,6.30000088 C10.6027109,6.30000088 10.84,6.53728996 10.84,6.83000088 C10.9098164,6.96575238 10.9060516,7.12764165 10.83,7.26000088 L10.82,7.22000088 Z M11.16,5.22000088 L8.7,5.22000088 C8.43696873,5.18860803 8.24650892,4.95385525 8.27,4.69000088 C8.26905739,4.55531424 8.31501972,4.42449839 8.4,4.32000088 C8.47541756,4.22580045 8.58933075,4.17068116 8.71,4.17000088 L11.14,4.17000088 C11.409783,4.19533377 11.619016,4.41668233 11.6291386,4.68746299 C11.6392613,4.95824364 11.4471386,5.19459615 11.18,5.24000088 L11.16,5.22000088 Z" id="Shape"></path>
                <path d="M19.87,2.12000088 L19.87,2.12000088 C19.87,2.4127118 19.6327109,2.65000088 19.34,2.65000088 L19.34,2.65000088 C19.0472891,2.65000088 18.81,2.4127118 18.81,2.12000088 L18.81,2.12000088 C18.81,1.82728996 19.0472891,1.59000088 19.34,1.59000088 L19.34,1.59000088 C19.4805647,1.59000088 19.6153723,1.64584 19.7147666,1.74523428 C19.8141609,1.84462856 19.87,1.97943614 19.87,2.12000088 L19.87,2.12000088 Z" id="Path"></path>
                <path d="M18.11,2.12000088 L18.11,2.12000088 C18.1334911,2.38385525 17.9430313,2.61860803 17.68,2.65000088 L16.07,2.65000088 C15.8069687,2.61860803 15.6165089,2.38385525 15.64,2.12000088 L15.64,2.12000088 C15.6165089,1.85614651 15.8069687,1.62139372 16.07,1.59000088 L17.7,1.59000088 C17.9549825,1.63101434 18.1343598,1.86289242 18.11,2.12000088 L18.11,2.12000088 Z" id="Path"></path>
                <path d="M19.04,4.71000088 L19.04,4.71000088 C19.0634911,4.97385525 18.8730313,5.20860803 18.61,5.24000088 L16.61,5.24000088 C16.3469687,5.20860803 16.1565089,4.97385525 16.18,4.71000088 L16.18,4.71000088 C16.1565089,4.44614651 16.3469687,4.21139372 16.61,4.18000088 L18.61,4.18000088 C18.8730313,4.21139372 19.0634911,4.44614651 19.04,4.71000088 Z" id="Path"></path>
            </g>
        </g>
    </g>
</svg>